<?xml version="1.0" standalone="no"?>
<!DOCTYPE svg PUBLIC "-//W3C//DTD SVG 1.1//EN" "http://www.w3.org/Graphics/SVG/1.1/DTD/svg11.dtd" >
<svg xmlns="http://www.w3.org/2000/svg">
<metadata></metadata>
<defs>
<font id="a_avanteltdemibold" horiz-adv-x="1200" >
<font-face units-per-em="2048" ascent="1638" descent="-410" />
<missing-glyph horiz-adv-x="614" />
<glyph horiz-adv-x="0" />
<glyph unicode="&#xd;" horiz-adv-x="614" />
<glyph horiz-adv-x="2048" />
<glyph unicode=" "  horiz-adv-x="614" />
<glyph unicode="&#x09;" horiz-adv-x="614" />
<glyph unicode="&#xa0;" horiz-adv-x="614" />
<glyph unicode="!" horiz-adv-x="618" d="M193 395v1080h235v-1080h-235zM195 0v262h231v-262h-231z" />
<glyph unicode="&#x22;" horiz-adv-x="698" d="M86 1460h193l-19 -571h-156zM420 1460h192l-18 -571h-158z" />
<glyph unicode="#" horiz-adv-x="1505" d="M84 451l45 167h289l74 234h-302l48 166h301l135 426h182l-135 -426h233l136 426h182l-133 -426h284l-47 -166h-284l-76 -234h301l-47 -167h-301l-135 -431h-183l135 431h-235l-133 -431h-182l131 431h-283zM598 616h236l75 236h-235z" />
<glyph unicode="$" d="M143 440h226q0 -102 57 -159.5t160 -57.5q92 0 146 59.5t54 153.5q0 104 -106 170q-8 6 -195 90q-307 137 -307 357q0 154 84 260t232 139v211h204v-211q137 -31 214 -131t77 -242h-223q0 76 -50 125t-126 49q-80 0 -130 -46t-50 -126q0 -86 96 -143q2 0 168 -72.5 t244 -152.5q104 -106 104 -256q0 -166 -80 -281q-86 -125 -244 -151v-246h-204v237q-168 29 -259.5 140.5t-91.5 283.5z" />
<glyph unicode="%" horiz-adv-x="1792" d="M82 1143q0 150 105 256t255 106t257.5 -106.5t107.5 -255.5q0 -152 -106.5 -256.5t-258.5 -104.5t-256 104.5t-104 256.5zM256 1143q0 -78 53 -130t131 -52t131.5 52t53.5 130t-53.5 131t-131.5 53t-131 -53t-53 -131zM440 -25l744 1522h168l-744 -1522h-168zM989 334 q0 152 105.5 256t257.5 104t257 -104t105 -256q0 -147 -107.5 -255t-254.5 -108q-150 0 -256.5 106.5t-106.5 256.5zM1165 334q0 -76 54.5 -131.5t130.5 -55.5q78 0 130 54.5t52 132.5q0 76 -53.5 129t-128.5 53q-80 0 -132.5 -51t-52.5 -131z" />
<glyph unicode="&#x26;" horiz-adv-x="1456" d="M125 410q0 244 276 417q-162 129 -161 303q0 160 106.5 263.5t265.5 103.5q145 0 249 -104.5t104 -249.5q0 -193 -228 -330q59 -70 211 -203q55 121 133 336h250q-98 -276 -207 -497l310 -285l-152 -164l-270 246q-166 -274 -437 -275q-182 0 -316 128t-134 311zM371 420 q0 -88 60.5 -150.5t148.5 -62.5q158 0 260 199q-147 129 -285 274q-184 -111 -184 -260zM469 1145q0 -106 121 -199q149 88 149 199q0 59 -36.5 99t-96.5 40q-59 0 -98 -40t-39 -99z" />
<glyph unicode="'" horiz-adv-x="360" d="M86 1460h190l-16 -571h-156z" />
<glyph unicode="(" horiz-adv-x="653" d="M154 203v686q0 459 428 629v-277q-115 -53 -156 -139q-31 -70 -31 -211v-686q0 -143 33 -221q41 -96 154 -156v-268q-233 92 -330.5 240.5t-97.5 402.5z" />
<glyph unicode=")" horiz-adv-x="653" d="M72 -172q113 57 153 152q33 76 33 217v710q0 131 -35 201q-41 82 -151 133v277q428 -172 428 -629v-686q0 -254 -97.5 -401.5t-330.5 -241.5v268z" />
<glyph unicode="*" horiz-adv-x="1112" d="M137 1102l62 176l272 -96l-2 293h174l-2 -293l274 96l62 -176l-287 -80l189 -240l-148 -108l-174 252l-174 -252l-150 108l189 240z" />
<glyph unicode="+" horiz-adv-x="1595" d="M219 498v186h486v494h188v-494h485v-186h-485v-498h-188v498h-486z" />
<glyph unicode="," horiz-adv-x="602" d="M184 0v264h236v-270q0 -246 -236 -266v141q59 4 78 39q12 23 14 92h-92z" />
<glyph unicode="-" horiz-adv-x="655" d="M70 449v221h518v-221h-518z" />
<glyph unicode="." horiz-adv-x="602" d="M182 0v272h238v-272h-238z" />
<glyph unicode="/" horiz-adv-x="727" d="M-6 -193l495 1690h209l-493 -1690h-211z" />
<glyph unicode="0" d="M84 516v442q0 242 138 393.5t378 151.5q233 0 374.5 -151.5t141.5 -386.5v-453q0 -242 -135 -389q-141 -152 -381 -152q-238 0 -379 156q-137 150 -137 389zM342 471q0 -119 68.5 -191.5t187.5 -72.5q256 0 256 295v473q0 293 -256 293t-256 -293v-504z" />
<glyph unicode="1" d="M244 0v233h233v1033h-182v209h440v-1242h226v-233h-717z" />
<glyph unicode="2" d="M119 0v229q197 199 325 314q147 131 185 166q121 115 160.5 180t39.5 145q0 109 -61 172.5t-170 63.5q-133 0 -186.5 -86t-53.5 -207h-239v4q0 238 129 380t362 142q207 0 339 -128t132 -333q0 -129 -47 -221q-76 -150 -332 -358q-113 -92 -247 -225h626v-238h-962z" />
<glyph unicode="3" d="M94 485h254q0 -276 234 -276q117 0 187.5 68.5t70.5 185.5q0 309 -277 309q-53 0 -149 -29l-99 148l355 350h-494v234h838v-218l-299 -280q383 -72 383 -496q0 -221 -143.5 -365.5t-364.5 -144.5q-225 0 -360.5 143.5t-135.5 370.5z" />
<glyph unicode="4" d="M76 258v211l651 1006h242v-1002h153v-215h-153v-258h-240v258h-653zM324 473h405v662z" />
<glyph unicode="5" d="M74 438h250q16 -100 87.5 -163.5t174.5 -63.5q123 0 203.5 83t80.5 206q0 127 -79.5 204.5t-206.5 77.5q-164 0 -234 -129l-215 47l135 775h717v-234h-528l-64 -311q92 80 240 80q207 0 349 -150.5t142 -357.5q0 -229 -158.5 -380t-387.5 -151q-215 0 -351.5 126 t-154.5 341z" />
<glyph unicode="6" d="M72 492q0 221 372 747q72 102 160 236h285q-180 -254 -338 -494q63 23 129 23q193 0 324 -156q122 -145 122 -342q0 -219 -154.5 -377t-373.5 -158t-372.5 151.5t-153.5 369.5zM315 506q0 -121 79 -208t200 -87q125 0 201.5 81t76.5 206q0 123 -75.5 203.5t-198.5 80.5 q-117 0 -200 -79.5t-83 -196.5z" />
<glyph unicode="7" d="M182 1243v232h862v-230l-534 -1245h-272l553 1243h-609z" />
<glyph unicode="8" d="M119 442q0 266 223 375q-152 106 -152 289q0 168 119 282.5t287 114.5q172 0 293 -112.5t121 -282.5q0 -190 -158 -291q225 -98 225 -366q0 -211 -135 -345.5t-348 -134.5q-205 0 -340 133.5t-135 337.5zM367 453q0 -102 64.5 -175t164.5 -73q104 0 169.5 70.5 t65.5 175.5q0 109 -62 176t-169 67q-106 0 -169.5 -67.5t-63.5 -173.5zM428 1102q0 -80 46 -133.5t124 -53.5q82 0 128 51.5t46 133.5q0 76 -47 128t-123 52t-125 -51t-49 -127z" />
<glyph unicode="9" d="M74 969q0 223 153.5 378.5t374.5 155.5q236 0 380 -149.5t144 -384.5q0 -74 -28 -158q-53 -156 -256 -457q-117 -172 -244 -354h-289q180 254 338 494q-63 -23 -127 -23q-193 0 -323 154q-123 147 -123 344zM326 977q0 -123 77.5 -203t200.5 -80q115 0 196 80t81 195 q0 119 -78 207t-195 88q-129 0 -205.5 -79t-76.5 -208z" />
<glyph unicode=":" horiz-adv-x="608" d="M184 0v272h238v-272h-238zM184 786v271h238v-271h-238z" />
<glyph unicode=";" horiz-adv-x="608" d="M184 0v264h240v-274q0 -242 -236 -262v141q59 8 78 41q12 25 13 90h-95zM184 786v271h238v-271h-238z" />
<glyph unicode="&#x3c;" horiz-adv-x="1595" d="M225 504v176l1147 473v-205l-909 -356l909 -359v-200z" />
<glyph unicode="=" horiz-adv-x="1595" d="M219 283v184h1159v-184h-1159zM219 715v186h1159v-186h-1159z" />
<glyph unicode="&#x3e;" horiz-adv-x="1595" d="M225 33v200l908 359l-908 356v205l1147 -473v-176z" />
<glyph unicode="?" horiz-adv-x="1052" d="M43 1030v23q0 201 129 325.5t330 124.5q197 0 319 -104q131 -112 131 -305q0 -129 -55 -211q-39 -57 -119 -146q-90 -98 -123 -141q-55 -74 -55 -188h-242q0 154 91 284q98 119 194 236q53 66 53 153q0 190 -209 191q-203 0 -202 -242h-242zM358 0v264h234v-264h-234z " />
<glyph unicode="@" horiz-adv-x="2074" d="M106 528q0 422 306 695q293 262 718 262q336 0 574 -176q264 -194 264 -518q0 -266 -149 -461q-164 -213 -422 -213q-209 0 -201 178q-113 -174 -305 -174q-156 0 -238 90t-82 248q0 219 131 383q139 174 353 174q172 0 245 -152l58 117h133l-145 -584q-8 -33 -9 -59 q0 -94 101 -94q68 0 129 37q119 70 188 213q66 133 66 278q0 285 -213 445q-193 145 -486 145q-367 0 -614 -234q-254 -238 -254 -602q0 -330 233 -524q217 -182 553 -182q352 0 629 192l57 -84q-301 -223 -673 -223q-395 0 -660 211q-287 227 -287 612zM733 453 q0 -98 45 -156q51 -66 146 -66q49 0 94 19q143 57 186 231l60 240q-33 186 -199 186q-158 0 -252 -153q-80 -133 -80 -301z" />
<glyph unicode="A" horiz-adv-x="1314" d="M-41 0l580 1475h231l578 -1475h-277l-139 375h-559l-144 -375h-270zM457 604h393l-195 551z" />
<glyph unicode="B" horiz-adv-x="1124" d="M131 0v1475h375q213 0 336 -91q141 -102 141 -307q0 -188 -162 -282q115 -37 178.5 -128t63.5 -214q0 -231 -160 -351q-139 -102 -381 -102h-391zM381 233h168q166 0 227 80q35 45 35 125q0 223 -260 224h-170v-429zM381 872h92q121 0 180 35q78 43 78 156 q0 178 -223 178h-127v-369z" />
<glyph unicode="C" horiz-adv-x="1566" d="M66 745q0 315 221 536.5t536 221.5q236 0 417 -117.5t263 -334.5h-289q-137 211 -393 211q-207 0 -351 -154t-144 -363q0 -213 142 -372.5t353 -159.5q256 0 385 203h297q-92 -213 -269 -329t-409 -116q-322 0 -540.5 225.5t-218.5 548.5z" />
<glyph unicode="D" horiz-adv-x="1425" d="M129 0v1475h498q332 0 532.5 -203t200.5 -537q0 -354 -221 -549q-211 -186 -572 -186h-438zM381 233h233q231 0 361.5 133.5t130.5 364.5q0 242 -138.5 376t-379.5 134h-207v-1008z" />
<glyph unicode="E" horiz-adv-x="1026" d="M131 0v1475h778v-230h-524v-387h522v-227h-522v-395h524v-236h-778z" />
<glyph unicode="F" horiz-adv-x="972" d="M129 0v1475h745v-230h-491v-393h487v-227h-487v-625h-254z" />
<glyph unicode="G" horiz-adv-x="1646" d="M63 745q0 317 227.5 537.5t545.5 220.5q231 0 408 -110.5t261 -319.5h-303q-117 188 -379 189q-207 0 -353 -154t-146 -363q0 -225 138 -378.5t361 -153.5q350 0 467 328h-610v227h905q-12 -350 -209 -567q-209 -229 -553 -230q-328 0 -544 222.5t-216 551.5z" />
<glyph unicode="H" horiz-adv-x="1337" d="M129 0v1475h254v-609h571v609h254v-1475h-254v629h-571v-629h-254z" />
<glyph unicode="I" horiz-adv-x="518" d="M133 0v1475h254v-1475h-254z" />
<glyph unicode="J" horiz-adv-x="976" d="M10 369h258v-9q-2 -157 154 -157h2q109 0 149 80q29 55 29 176v1016h254v-1031q0 -471 -438 -471q-186 0 -297 105.5t-111 290.5z" />
<glyph unicode="K" horiz-adv-x="1198" d="M131 0v1475h254v-725l539 725h290l-559 -725l557 -750h-311l-516 733v-733h-254z" />
<glyph unicode="L" horiz-adv-x="892" d="M131 0v1475h254v-1239h471v-236h-725z" />
<glyph unicode="M" horiz-adv-x="1773" d="M129 0v1475h365l393 -1104l393 1104h360v-1475h-241l4 893q0 49 4 151.5t4 155.5l-2 -2l-434 -1198h-176l-437 1200l-2 -2q0 -53 5 -155.5t4 -151.5l6 -891h-246z" />
<glyph unicode="N" horiz-adv-x="1429" d="M131 0v1475h246l686 -1067l-10 1067h245v-1475h-233l-698 1090l12 -1090h-248z" />
<glyph unicode="O" horiz-adv-x="1652" d="M66 743q0 313 225 536.5t538 223.5q315 0 536.5 -222.5t221.5 -537.5q0 -324 -219 -548t-541 -224q-317 0 -539 226.5t-222 545.5zM326 743q0 -215 145 -372.5t356 -157.5q219 0 363 160q137 154 137 375q0 205 -148.5 359.5t-351.5 154.5q-205 0 -353 -156t-148 -363z " />
<glyph unicode="P" horiz-adv-x="1112" d="M131 0v1475h406q238 0 376 -107q154 -119 154 -348q0 -223 -145 -344q-135 -115 -363 -115h-176v-561h-252zM383 793h137q137 0 205 41q84 53 84 182q0 229 -281 229h-145v-452z" />
<glyph unicode="Q" horiz-adv-x="1656" d="M63 743q0 313 224.5 536.5t537.5 223.5q319 0 539.5 -226t220.5 -546q0 -276 -166 -473q98 -43 215 -43v-229q-225 8 -401 104q-188 -119 -408 -119q-322 0 -542 225.5t-220 546.5zM324 743q0 -215 145 -372.5t356 -157.5q217 0 363 160q139 154 139 375 q0 207 -148.5 360.5t-353.5 153.5t-353 -156t-148 -363z" />
<glyph unicode="R" horiz-adv-x="1204" d="M131 0v1475h463q248 0 387 -117q152 -125 152 -367q0 -174 -117 -303t-289 -137l414 -551h-307l-451 643v-643h-252zM383 731h154q168 0 245 43q104 59 105 213q0 252 -322 252h-182v-508z" />
<glyph unicode="S" horiz-adv-x="1034" d="M51 442h248q0 -100 53 -168q56 -73 151 -73h3q102 0 160.5 63.5t58.5 165.5q0 125 -164 207q-152 72 -303 143q-164 111 -164 305q0 190 122 304t314 114q190 0 301 -109.5t111 -299.5h-242q0 84 -48 134t-130 50t-132 -46t-50 -128q0 -31 10 -60q27 -70 172 -141 q109 -49 217 -98q145 -82 207 -207q33 -68 33 -156q0 -213 -128 -342t-341 -129q-209 0 -334 130t-125 341z" />
<glyph unicode="T" horiz-adv-x="884" d="M25 1243v232h837v-232h-291v-1243h-256v1243h-290z" />
<glyph unicode="U" horiz-adv-x="1226" d="M119 516v959h254v-936q0 -334 245 -334q139 0 195 104q41 76 41 230v936h254v-938q0 -254 -113 -402q-127 -164 -372 -164q-246 0 -379 152q-125 143 -125 393z" />
<glyph unicode="V" horiz-adv-x="1259" d="M-18 1475h266l383 -1166l381 1166h266l-522 -1475h-252z" />
<glyph unicode="W" horiz-adv-x="1802" d="M-16 1475h260l291 -1094l270 1094h192l267 -1094l292 1094h259l-433 -1475h-227l-256 1067l-256 -1067h-227z" />
<glyph unicode="X" horiz-adv-x="1290" d="M2 0l498 756l-473 719h292l328 -533l322 533h297l-473 -721l495 -754h-293l-352 563l-350 -563h-291z" />
<glyph unicode="Y" horiz-adv-x="1091" d="M-31 1475h281l297 -678l297 678h280l-450 -938v-537h-256v543z" />
<glyph unicode="Z" horiz-adv-x="989" d="M39 0v221l610 1016h-579v238h870v-218l-618 -1021h628v-236h-911z" />
<glyph unicode="[" horiz-adv-x="659" d="M141 -446v1935h445v-191h-213v-1552h213v-192h-445z" />
<glyph unicode="\" horiz-adv-x="727" d="M37 1497h211l495 -1690h-211z" />
<glyph unicode="]" horiz-adv-x="659" d="M76 -254h211v1552h-211v191h442v-1935h-442v192z" />
<glyph unicode="^" horiz-adv-x="1855" d="M342 870l473 607h225l473 -607h-227l-358 433l-361 -433h-225z" />
<glyph unicode="_" horiz-adv-x="1030" d="M-6 -295h1042v-133h-1042v133z" />
<glyph unicode="`" horiz-adv-x="1054" d="M270 1542l148 113l282 -355l-108 -65z" />
<glyph unicode="a" horiz-adv-x="1280" d="M59 532q0 229 154 391t381 162q217 0 346 -149v121h229v-1057h-223v131q-135 -156 -346 -156q-236 0 -388.5 161t-152.5 396zM287 532q0 -139 97 -244.5t237 -105.5q131 0 229 104.5t98 237.5q0 143 -95 246.5t-237 103.5q-137 0 -233 -102t-96 -240z" />
<glyph unicode="b" horiz-adv-x="1280" d="M109 0v1577h227v-637q145 145 350 145q229 0 381 -161t152 -392q0 -240 -153 -398.5t-392 -158.5q-205 0 -344 156v-131h-221zM330 526q0 -135 95 -239.5t230 -104.5q141 0 238.5 103.5t97.5 246.5q0 137 -98 239.5t-236 102.5q-137 0 -232 -104t-95 -244z" />
<glyph unicode="c" horiz-adv-x="1181" d="M55 528q0 242 156 399.5t397 157.5q197 0 333 -102t187 -291h-235q-84 182 -297 182q-141 0 -227 -100t-86 -246q0 -145 88 -243q92 -104 235 -105q100 0 178 50.5t109 140.5h237q-55 -188 -191 -294t-333 -106q-240 0 -395.5 159t-155.5 398z" />
<glyph unicode="d" horiz-adv-x="1280" d="M59 532q0 229 153 391t380 162q209 0 350 -145v637h227v-1577h-223v127q-131 -152 -346 -152q-236 0 -388.5 161t-152.5 396zM287 532q0 -143 95 -245.5t239 -102.5q137 0 232 101.5t95 238.5q0 143 -93 246.5t-234 103.5t-237.5 -100t-96.5 -242z" />
<glyph unicode="e" horiz-adv-x="1202" d="M55 528q0 231 158 395t387 164q180 0 317.5 -95t194.5 -265q35 -104 35 -276h-862q23 -123 109.5 -203t209.5 -80q184 0 270 166h252q-135 -362 -522 -363q-240 0 -394.5 158t-154.5 399zM289 635h624q-27 113 -109.5 180.5t-197.5 67.5q-252 0 -317 -248z" />
<glyph unicode="f" horiz-adv-x="546" d="M33 866v191h114v262q0 289 244 289q74 0 139 -31v-174q-55 8 -61 8q-94 0 -94 -129v-225h155v-191h-153v-866h-227v866h-117z" />
<glyph unicode="g" horiz-adv-x="1280" d="M59 532q0 229 154 391t383 162q213 0 346 -149v121h227v-942q0 -272 -135 -428q-143 -166 -411 -166q-197 0 -332 84q-150 96 -189 276h256q20 -80 99 -123q68 -39 155 -39q195 0 279 166q29 55 39 105.5t10 138.5q-131 -154 -336 -154q-238 0 -391.5 159t-153.5 398z M287 532q0 -152 93 -250t243 -98q133 0 228 101.5t95 236.5q0 141 -94 245.5t-234 104.5q-139 0 -235 -100t-96 -240z" />
<glyph unicode="h" horiz-adv-x="1132" d="M113 0v1577h229v-637q88 137 283 137q197 0 301 -127q96 -117 96 -317v-633h-229v563q0 303 -215 303q-236 0 -236 -356v-510h-229z" />
<glyph unicode="i" horiz-adv-x="450" d="M113 0v1057h225v-1057h-225zM117 1276v235h219v-235h-219z" />
<glyph unicode="j" horiz-adv-x="460" d="M-37 -281q90 0 124 39t34 131v1168h227v-1186q0 -188 -100 -270q-90 -74 -285 -74v192zM123 1276v235h221v-235h-221z" />
<glyph unicode="k" horiz-adv-x="985" d="M111 0v1577h225v-999l352 479h262l-385 -496l436 -561h-272l-393 528v-528h-225z" />
<glyph unicode="l" horiz-adv-x="454" d="M113 0v1577h227v-1577h-227z" />
<glyph unicode="m" horiz-adv-x="1736" d="M113 0v1057h209v-121q98 141 276 141q213 0 309 -182q96 182 330 182q184 0 286.5 -114.5t102.5 -300.5v-662h-227v606q0 268 -205 268q-129 0 -178 -100q-33 -70 -33 -211v-563h-221v547q0 145 -33 219q-49 108 -174 108h-2q-219 0 -219 -321v-553h-221z" />
<glyph unicode="n" horiz-adv-x="1144" d="M111 0v1057h219v-119q104 139 291 139q207 0 313 -121q100 -117 100 -325v-631h-227v575q0 291 -225 291q-143 0 -201 -112q-41 -82 -41 -244v-510h-229z" />
<glyph unicode="o" horiz-adv-x="1224" d="M53 530q0 231 163 396.5t392 165.5q231 0 397 -162t166 -391q0 -238 -160.5 -403t-398.5 -165q-236 0 -397.5 162t-161.5 397zM289 528q0 -145 89 -242.5t234 -97.5q143 0 234.5 98.5t91.5 241.5q0 147 -91 246.5t-237 99.5q-143 0 -232 -100t-89 -246z" />
<glyph unicode="p" horiz-adv-x="1280" d="M109 -455v1512h223v-129q138 153 343 153h3q236 0 388.5 -160.5t152.5 -398.5q0 -225 -153 -388t-378 -163q-207 0 -352 148v-574h-227zM330 532q0 -141 94 -245.5t233 -104.5q137 0 235.5 102.5t98.5 239.5q0 143 -96 245.5t-240 102.5q-133 0 -229 -102t-96 -238z" />
<glyph unicode="q" horiz-adv-x="1280" d="M59 522q0 238 153 398.5t388 160.5q205 0 346 -153v129h223v-1512h-227v574q-141 -147 -350 -148q-225 0 -379 163t-154 388zM289 524q0 -137 97 -239.5t235 -102.5q139 0 233 104.5t94 245.5q0 135 -96 237.5t-229 102.5q-143 0 -238.5 -101t-95.5 -247z" />
<glyph unicode="r" horiz-adv-x="649" d="M111 0v1057h215v-121q86 135 221 135q41 0 78 -14v-221q-20 8 -80 8q-207 0 -207 -254v-590h-227z" />
<glyph unicode="s" horiz-adv-x="825" d="M47 336h215q0 -168 152 -168q141 0 141 129q0 86 -121 141q-113 53 -227 105q-121 82 -121 227q0 135 99.5 228.5t234.5 93.5q147 0 234 -82t96 -230h-218q0 113 -118 113q-49 0 -81 -29.5t-32 -79.5q0 -72 121 -125q190 -82 227 -108q121 -90 121 -252 q0 -152 -104.5 -240t-257.5 -88q-160 0 -260.5 102.5t-100.5 262.5z" />
<glyph unicode="t" horiz-adv-x="561" d="M27 866v191h131v344h227v-344h150v-191h-150v-866h-227v866h-131z" />
<glyph unicode="u" horiz-adv-x="1134" d="M109 434v623h225v-568q0 -303 219 -303q143 0 199 115q39 80 39 242v514h227v-1057h-219v119q-100 -143 -275 -144q-205 0 -313 129q-102 121 -102 330z" />
<glyph unicode="v" horiz-adv-x="1011" d="M12 1057h236l258 -746l264 746h231l-409 -1057h-184z" />
<glyph unicode="w" horiz-adv-x="1456" d="M12 1057h236l201 -690l204 690h154l203 -690l202 690h234l-356 -1057h-154l-209 709l-207 -709h-153z" />
<glyph unicode="x" horiz-adv-x="974" d="M-8 0l364 555l-329 502h254l208 -340l213 340h261l-340 -498l354 -559h-254l-238 381l-239 -381h-254z" />
<glyph unicode="y" horiz-adv-x="1044" d="M12 1057h240l289 -746l272 746h240l-584 -1512h-233l188 492z" />
<glyph unicode="z" horiz-adv-x="804" d="M23 0v170l493 696h-446v191h675v-207l-460 -655h481v-195h-743z" />
<glyph unicode="{" horiz-adv-x="1054" d="M180 422v203q135 0 195 49q68 53 67 184v293q0 340 365 340h92v-176q-158 0 -196.5 -43t-38.5 -154v-301q0 -238 -222 -297q119 -29 170.5 -99.5t51.5 -195.5v-196v-37q-2 -25 -2 -37q0 -135 50 -180t187 -45v-176h-106q-197 0 -274 72.5t-77 267.5v290q0 139 -63 191 q-56 47 -199 47z" />
<glyph unicode="|" horiz-adv-x="1030" d="M414 -463v1997h209v-1997h-209z" />
<glyph unicode="}" horiz-adv-x="1054" d="M156 -270q154 0 198 57q39 47 39 207v115q-2 78 -2 116q0 125 51.5 196t169.5 99q-221 59 -221 297v301q0 113 -38 155t-197 42v176h92q365 0 364 -340v-293q0 -129 68 -184q61 -49 194 -49v-203q-141 0 -198 -47q-63 -53 -64 -191v-290q0 -195 -76.5 -267.5 t-273.5 -72.5h-106v176z" />
<glyph unicode="~" horiz-adv-x="1595" d="M168 604q184 154 358 154q100 0 280.5 -68.5t266.5 -68.5q156 -1 338 151l19 -194q-178 -154 -361 -154q-96 0 -272 69.5t-273 69.5q-145 0 -338 -153z" />
<glyph unicode="&#xa4;" horiz-adv-x="1249" d="M61 1307l103 98l201 -199q121 86 262 86q150 0 264 -86l199 199l104 -98l-201 -203q82 -115 82 -262q0 -152 -82 -260l201 -201l-104 -102l-199 200q-117 -88 -260 -88q-147 0 -266 88l-201 -200l-101 102l199 201q-84 109 -84 260q0 147 84 262zM344 844q0 -117 84 -201 t201 -84t200.5 84t83.5 201t-82.5 200.5t-199.5 83.5q-119 0 -203 -82.5t-84 -201.5z" />
<glyph unicode="&#xa6;" horiz-adv-x="1030" d="M414 395h209v-809h-209v809zM414 659v809h209v-809h-209z" />
<glyph unicode="&#xa7;" horiz-adv-x="1112" d="M82 659q0 172 182 302q-86 78 -86 206q0 154 113 248q104 88 262 88q168 0 272 -90q109 -96 109 -260h-207q0 76 -50 119t-128 43q-156 0 -156 -131q0 -25 8 -47q20 -57 187 -144l280 -145q164 -84 164 -299q0 -197 -186 -293q92 -92 92 -221q0 -156 -125 -252 q-115 -88 -274 -88q-166 0 -276.5 99.5t-110.5 262.5h210q0 -172 193 -172q170 0 170 140q0 61 -44 101t-275 157q-166 82 -226 139q-98 94 -98 237zM289 702q0 -68 51 -116q33 -31 111 -74l266 -143q104 57 104 159q0 109 -162 193l-266 137q-104 -57 -104 -156z" />
<glyph unicode="&#xa9;" horiz-adv-x="1695" d="M96 737q0 297 226.5 523.5t523.5 226.5q315 0 534 -217t219 -533q0 -309 -222 -530t-531 -221q-305 0 -527.5 223t-222.5 528zM209 737q0 -262 188.5 -450.5t450.5 -188.5q250 0 443.5 194.5t193.5 444.5q0 268 -184.5 453.5t-452.5 185.5q-264 0 -451.5 -187.5 t-187.5 -451.5zM446 743q0 193 107 318q113 133 301 133q137 0 236 -74q106 -80 118 -213h-164q-20 156 -198 156q-119 0 -176 -109q-45 -86 -45 -215t49 -215q61 -102 182 -102q168 0 199 178h162q-16 -145 -118 -229t-251 -84q-188 0 -299 137q-102 127 -103 319z" />
<glyph unicode="&#xab;" horiz-adv-x="1003" d="M82 592l252 315h186l-244 -317l244 -314h-186zM459 592l252 315h190l-246 -317l246 -314h-190z" />
<glyph unicode="&#xac;" horiz-adv-x="1595" d="M211 694v187h1169v-549h-182v362h-987z" />
<glyph unicode="&#xad;" horiz-adv-x="655" d="M70 449v221h518v-221h-518z" />
<glyph unicode="&#xae;" horiz-adv-x="1695" d="M96 737q0 299 225.5 524.5t524.5 225.5q313 0 533 -218.5t220 -531.5q0 -309 -222 -530t-531 -221q-303 0 -526.5 224t-223.5 527zM209 737q0 -258 188.5 -448.5t446.5 -190.5q268 0 454.5 182.5t186.5 450.5q0 276 -180.5 460.5t-456.5 184.5q-264 0 -451.5 -187.5 t-187.5 -451.5zM588 307v869h282q328 0 328 -285q0 -102 -71.5 -179t-174.5 -81l250 -324h-186l-275 379v-379h-153zM741 737h93q100 0 147 25q68 35 68 127q0 153 -201 153h-107v-305z" />
<glyph unicode="&#xb0;" horiz-adv-x="710" d="M66 1174q0 121 85 204.5t205 83.5q121 0 206 -83.5t85 -204.5q0 -119 -86 -206t-205 -87q-123 0 -206.5 85t-83.5 208zM178 1174q0 -72 53.5 -126.5t124.5 -54.5q78 0 128.5 51.5t50.5 129.5q0 76 -51.5 127t-127.5 51q-74 0 -126 -52.5t-52 -125.5z" />
<glyph unicode="&#xb1;" horiz-adv-x="1595" d="M219 23v186h1159v-186h-1159zM219 670v186h486v305h188v-305h485v-186h-485v-305h-188v305h-486z" />
<glyph unicode="&#xb6;" horiz-adv-x="1126" d="M47 1128q0 176 123 275q113 90 293 90h569v-125h-119v-1417h-145v1417h-182v-1417h-150v821q-166 0 -274 94q-115 98 -115 262z" />
<glyph unicode="&#xb7;" horiz-adv-x="602" d="M182 555v272h238v-272h-238z" />
<glyph unicode="&#xbb;" horiz-adv-x="1003" d="M102 276l248 314l-248 317h191l252 -315l-252 -316h-191zM483 276l246 314l-244 317h187l252 -315l-252 -316h-189z" />
<glyph unicode="&#x2000;" horiz-adv-x="831" />
<glyph unicode="&#x2001;" horiz-adv-x="1663" />
<glyph unicode="&#x2002;" horiz-adv-x="831" />
<glyph unicode="&#x2003;" horiz-adv-x="1663" />
<glyph unicode="&#x2004;" horiz-adv-x="554" />
<glyph unicode="&#x2005;" horiz-adv-x="415" />
<glyph unicode="&#x2006;" horiz-adv-x="277" />
<glyph unicode="&#x2007;" horiz-adv-x="277" />
<glyph unicode="&#x2008;" horiz-adv-x="207" />
<glyph unicode="&#x2009;" horiz-adv-x="332" />
<glyph unicode="&#x200a;" horiz-adv-x="92" />
<glyph unicode="&#x2010;" horiz-adv-x="655" d="M70 449v221h518v-221h-518z" />
<glyph unicode="&#x2011;" horiz-adv-x="655" d="M70 449v221h518v-221h-518z" />
<glyph unicode="&#x2012;" horiz-adv-x="655" d="M70 449v221h518v-221h-518z" />
<glyph unicode="&#x2013;" horiz-adv-x="1030" d="M-6 481v193h1042v-193h-1042z" />
<glyph unicode="&#x2014;" horiz-adv-x="2062" d="M-6 481v193h2074v-193h-2074z" />
<glyph unicode="&#x2018;" horiz-adv-x="516" d="M139 958v269q0 186 129 241q16 6 111 29v-145q-61 -8 -75.5 -34t-14.5 -93h90v-267h-240z" />
<glyph unicode="&#x2019;" horiz-adv-x="516" d="M139 938v141q59 8 78 39q12 23 12 86h-90v271h168l72 -109v-98q0 -121 -14 -140q-14 -135 -140 -174q-29 -6 -86 -16z" />
<glyph unicode="&#x201a;" horiz-adv-x="516" d="M139 0v268h238v-272q0 -242 -238 -268v145q59 4 78 39q12 25 12 88h-90z" />
<glyph unicode="&#x201c;" horiz-adv-x="890" d="M137 958v269q0 184 131 241q25 10 109 29v-145q-61 -8 -75.5 -34t-14.5 -93h90v-267h-240zM512 958v269q0 186 131 241q18 8 109 29v-145q-57 -8 -73.5 -36t-16.5 -91h90v-267h-240z" />
<glyph unicode="&#x201d;" horiz-adv-x="890" d="M137 938v141q59 8 78 37q12 23 14 88h-92v271h168l72 -109v-98q0 -121 -15 -140q-14 -135 -137 -174q-2 0 -88 -16zM512 938v141q59 8 78 37q12 23 14 88h-92v271h168l72 -109v-98q0 -121 -15 -140q-14 -137 -137 -174q-29 -6 -88 -16z" />
<glyph unicode="&#x201e;" horiz-adv-x="890" d="M137 0v268h240v-272q0 -240 -240 -268v145q59 6 78 39q12 23 14 88h-92zM512 0v268h240v-272q0 -240 -240 -268v145q59 6 78 39q12 23 14 88h-92z" />
<glyph unicode="&#x2022;" horiz-adv-x="1286" d="M342 768q0 123 89 211t212 88q125 0 213 -87t88 -212q0 -123 -89 -214t-212 -91t-212 90t-89 215z" />
<glyph unicode="&#x2026;" horiz-adv-x="2054" d="M223 0v272h238v-272h-238zM909 0v272h238v-272h-238zM1593 0v272h238v-272h-238z" />
<glyph unicode="&#x202f;" horiz-adv-x="332" />
<glyph unicode="&#x2039;" horiz-adv-x="649" d="M102 592l252 315h187l-244 -317l246 -314h-189z" />
<glyph unicode="&#x203a;" horiz-adv-x="649" d="M106 276l246 314l-243 317h186l252 -315l-252 -316h-189z" />
<glyph unicode="&#x205f;" horiz-adv-x="415" />
<glyph unicode="&#x2122;" horiz-adv-x="1789" d="M197 1362v115h493v-115h-176v-514h-139v514h-178zM811 848v629h195l157 -433l150 433h190v-629h-129v485l-170 -485h-86l-174 485v-485h-133z" />
<glyph unicode="&#x25fc;" horiz-adv-x="1054" d="M0 0v1055h1055v-1055h-1055z" />
</font>
</defs>
</svg>
